<?xml version="1.0" standalone="no"?>
<!DOCTYPE svg PUBLIC "-//W3C//DTD SVG 20010904//EN"
 "http://www.w3.org/TR/2001/REC-SVG-20010904/DTD/svg10.dtd">
<svg version="1.0" xmlns="http://www.w3.org/2000/svg"
 width="225.000000pt" height="225.000000pt" viewBox="0 0 225.000000 225.000000"
 preserveAspectRatio="xMidYMid meet">

<g transform="translate(0.000000,225.000000) scale(0.100000,-0.100000)"
fill="#000000" stroke="none">
<path d="M337 1862 l-237 -237 0 -153 c0 -119 3 -153 13 -150 8 3 13 42 15
136 l3 132 212 0 c176 0 216 3 235 16 22 15 22 19 22 240 l0 224 438 -2 437
-3 3 -412 2 -413 -94 0 c-85 0 -98 -2 -122 -24 -24 -20 -28 -32 -32 -90 l-4
-66 -130 0 -130 0 -29 -29 c-29 -29 -29 -31 -29 -141 0 -105 1 -112 25 -136
24 -24 24 -25 27 -247 2 -122 7 -230 12 -240 8 -16 -14 -17 -415 -15 l-424 3
-5 384 c-4 295 -8 385 -17 389 -10 3 -13 -80 -13 -392 0 -381 1 -396 19 -406
13 -7 324 -10 936 -10 l917 0 29 29 29 29 0 224 0 225 25 23 c24 22 25 29 25
141 0 166 3 163 -179 167 l-141 4 0 60 c0 53 -3 63 -29 89 -28 28 -33 29 -125
29 l-96 0 0 413 c0 388 -1 415 -18 430 -17 15 -64 17 -468 17 l-449 0 -238
-238z m223 -32 l0 -200 -202 0 -203 0 200 200 c110 110 201 200 202 200 2 0 3
-90 3 -200z m1148 -640 c17 -17 22 -32 22 -75 0 -54 0 -55 -30 -55 -27 0 -30
3 -30 29 0 20 -9 36 -26 50 -24 19 -40 21 -148 21 -138 0 -163 -9 -168 -63 -3
-28 -7 -32 -35 -35 l-33 -3 0 51 c0 41 5 56 25 75 24 25 26 25 213 25 176 0
190 -1 210 -20z m-228 -100 l0 -30 -60 0 -60 0 0 30 0 30 60 0 60 0 0 -30z
m154 14 c15 -39 8 -44 -59 -44 l-65 0 0 30 c0 30 0 30 59 30 44 0 60 -4 65
-16z m398 -91 c25 -23 27 -207 1 -235 -26 -29 -107 -25 -145 7 -24 21 -40 25
-89 25 -51 0 -64 -4 -85 -25 -25 -25 -26 -25 -216 -25 -188 0 -190 0 -220 25
-24 21 -40 25 -89 25 -51 0 -64 -4 -85 -25 -20 -20 -35 -25 -79 -25 -75 0 -85
16 -85 137 0 146 -56 133 557 133 466 0 518 -2 535 -17z m-768 -259 c11 -30
-13 -44 -76 -44 -60 0 -77 12 -64 45 8 22 131 21 140 -1z m601 -14 c0 -24 -3
-25 -63 -28 -49 -2 -64 0 -68 13 -14 35 3 46 68 43 60 -3 63 -4 63 -28z"/>
<path d="M1246 1964 c-9 -8 -16 -26 -16 -39 0 -33 -84 -100 -135 -108 -47 -7
-100 16 -118 53 -18 36 -41 46 -71 32 -19 -8 -26 -19 -26 -40 0 -22 -12 -39
-52 -73 -33 -28 -60 -43 -74 -41 -42 6 -72 -56 -42 -86 15 -15 61 -15 76 0 7
7 12 23 13 38 1 35 77 101 129 110 44 8 120 -19 120 -43 0 -20 33 -47 58 -47
23 0 58 43 48 59 -10 16 93 101 123 101 34 0 51 17 51 50 0 14 -5 31 -12 38
-17 17 -54 15 -72 -4z m-134 -206 c-15 -15 -26 -4 -18 18 5 13 9 15 18 6 9 -9
9 -15 0 -24z m-344 -60 c-3 -7 -11 -13 -18 -13 -7 0 -15 6 -17 13 -3 7 4 12
17 12 13 0 20 -5 18 -12z"/>
<path d="M1217 1773 c-4 -3 -7 -78 -7 -165 0 -151 -1 -158 -20 -158 -19 0 -20
7 -20 95 l0 95 -65 0 -64 0 -3 -92 c-3 -78 -6 -93 -20 -96 -16 -3 -18 10 -20
120 l-3 123 -67 3 -68 3 0 -126 c0 -117 -1 -125 -20 -125 -16 0 -19 8 -22 58
l-3 57 -65 0 -65 0 -3 -57 c-2 -43 -7 -58 -17 -58 -8 0 -15 -7 -15 -15 0 -13
47 -15 365 -15 318 0 365 2 365 15 0 8 -7 15 -15 15 -13 0 -15 25 -15 165 l0
165 -63 0 c-35 0 -67 -3 -70 -7z m-77 -243 l0 -80 -35 0 -35 0 0 80 0 80 35 0
35 0 0 -80z m-360 -35 c0 -43 -1 -45 -30 -45 -29 0 -30 2 -30 45 0 43 1 45 30
45 29 0 30 -2 30 -45z"/>
<path d="M440 1290 c-97 -45 -159 -133 -168 -236 -20 -256 291 -400 473 -219
56 57 80 116 79 200 -2 109 -47 187 -142 242 -63 37 -177 43 -242 13z m231
-46 c55 -28 119 -127 119 -183 0 -7 -35 -11 -110 -11 l-110 0 0 114 0 114 38
-10 c20 -6 49 -16 63 -24z m119 -249 c0 -65 -63 -150 -136 -184 -42 -20 -147
-32 -161 -18 -3 3 12 56 32 116 l37 111 114 0 114 0 0 -25z"/>
<path d="M102 1178 c4 -133 23 -134 23 -1 0 70 -4 98 -13 101 -10 3 -12 -19
-10 -100z"/>
<path d="M307 663 c-20 -20 14 -23 238 -23 211 0 245 2 245 15 0 13 -33 15
-238 15 -131 0 -242 -3 -245 -7z"/>
<path d="M307 544 c-19 -20 26 -24 244 -24 206 0 239 2 239 15 0 13 -33 15
-238 15 -131 0 -242 -3 -245 -6z"/>
<path d="M302 418 c4 -10 64 -14 246 -16 211 -2 242 0 242 13 0 13 -33 15
-246 15 -192 0 -245 -3 -242 -12z"/>
</g>
</svg>
